<svg width="30" height="31" viewBox="0 0 30 31" fill="none" xmlns="http://www.w3.org/2000/svg">
<g id="Frame" opacity="0.7">
<path id="Vector" d="M21.125 6.45834C22.75 6.45834 24 6.975 25 8.00834C26 9.04167 26.5 10.4625 26.5 12.0125C26.5 13.4333 26 14.5958 24.875 16.1458C24.125 17.1792 22.125 19.375 20.25 21.0542C18.875 22.2167 16.125 24.5417 14.625 24.5417C13 24.5417 9.875 21.9583 8.875 21.0542C7 19.5042 5 17.3083 4.25 16.275C3.25 14.9833 2.625 13.6917 2.625 12.1417C2.625 10.4625 3.125 9.17084 4.125 8.13751C5.125 7.10417 6.375 6.5875 8 6.5875C9.5 6.5875 10.75 7.10417 11.875 8.13751C12.625 8.91251 13.125 9.81667 13.25 10.9792C13.375 11.625 13.875 12.0125 14.5 12.0125H14.75C15.375 12.0125 15.875 11.625 16 10.9792C16.25 9.94584 16.625 8.91251 17.375 8.13751C18.375 6.97501 19.625 6.45834 21.125 6.45834ZM21.125 5.16667C19.25 5.16667 17.625 5.81251 16.375 7.10417C15.375 8.13751 14.875 9.3 14.625 10.5917H14.375C14.125 9.3 13.5 8.13751 12.625 7.10417C11.375 5.81251 9.75 5.16667 7.875 5.16667C6 5.16667 4.375 5.81251 3.125 7.10417C1.875 8.39584 1.25 10.075 1.25 12.0125C1.25 13.95 2.125 15.5 3.125 16.9208C4 18.0833 6 20.2792 8 21.9583C10.5 24.025 12.875 25.7042 14.625 25.7042C16.25 25.7042 18.5 24.025 21 21.9583C23 20.2792 25 17.9542 25.875 16.9208C27 15.5 27.75 13.95 27.75 12.0125C27.75 10.075 27.125 8.39584 25.875 7.10417C24.625 5.81251 23.125 5.16667 21.125 5.16667Z" fill="#414141"/>
</g>
</svg>
