<svg width="30" height="30" viewBox="0 0 30 30" fill="none" xmlns="http://www.w3.org/2000/svg">
<g id="Frame" opacity="0.6">
<path id="Vector" d="M27.125 7.875C26.75 7.375 26.125 7.125 25.5 7.125H8.875L7.625 3H3.125C2.75 3.125 2.5 3.375 2.5 3.75C2.5 4.125 2.75 4.375 3.125 4.375H6.625L7.5 7.25L10.25 18.125C10.375 19.125 11.25 19.75 12.25 19.75H23.5C24.375 19.75 25.25 19.125 25.5 18.25L27.625 9.5C27.625 8.875 27.5 8.375 27.125 7.875ZM24 18C23.875 18.25 23.625 18.5 23.375 18.5H12.125C11.75 18.5 11.5 18.25 11.375 17.875L9.125 8.5V8.375H25.375C25.625 8.375 25.75 8.5 25.875 8.625C26.125 8.75 26.25 9 26.125 9.25L24 18ZM13.75 22.75C12.375 22.75 11.25 23.875 11.25 25.25C11.25 26.625 12.375 27.75 13.75 27.75C15.125 27.75 16.25 26.625 16.25 25.25C16.25 23.875 15.125 22.75 13.75 22.75ZM13.75 26.5C13 26.5 12.5 26 12.5 25.25C12.5 24.5 13 24 13.75 24C14.5 24 15 24.5 15 25.25C15 26 14.5 26.5 13.75 26.5ZM22.5 22.75C21.125 22.75 20 23.875 20 25.25C20 26.625 21.125 27.75 22.5 27.75C23.875 27.75 25 26.625 25 25.25C25 23.875 23.875 22.75 22.5 22.75ZM22.5 26.5C21.75 26.5 21.25 26 21.25 25.25C21.25 24.5 21.75 24 22.5 24C23.25 24 23.75 24.5 23.75 25.25C23.75 26 23.25 26.5 22.5 26.5Z" fill="black"/>
</g>
</svg>
